<?xml version="1.0" standalone="no"?>
<!DOCTYPE svg PUBLIC "-//W3C//DTD SVG 20010904//EN"
 "http://www.w3.org/TR/2001/REC-SVG-20010904/DTD/svg10.dtd">
<svg version="1.0" xmlns="http://www.w3.org/2000/svg"
 width="250.000000pt" height="250.000000pt" viewBox="0 0 250.000000 250.000000"
 preserveAspectRatio="xMidYMid meet">
<metadata>
Created by potrace 1.14, written by Peter Selinger 2001-2017
</metadata>
<g transform="translate(0.000000,250.000000) scale(0.100000,-0.100000)"
fill="#000000" stroke="none">
<path d="M1137 2329 c-167 -40 -315 -198 -345 -369 -5 -30 -9 -211 -8 -405 3
-327 4 -353 23 -402 34 -85 69 -137 130 -193 115 -106 264 -146 412 -112 175
39 308 166 350 335 16 64 18 111 16 427 -2 397 -4 409 -73 516 -63 97 -154
164 -268 199 -49 14 -184 17 -237 4z m264 -121 c76 -35 144 -104 181 -185 l32
-68 1 -340 c1 -187 -3 -360 -7 -385 -13 -69 -57 -147 -112 -197 -204 -183
-523 -92 -598 172 -12 39 -14 125 -13 400 l1 350 27 58 c50 109 117 172 220
209 73 26 195 20 268 -14z"/>
<path d="M1208 1905 c-2 -1 -21 -5 -43 -8 -86 -12 -121 -40 -104 -85 12 -32
30 -36 96 -19 63 15 134 14 199 -4 48 -13 78 -2 87 30 8 32 -19 58 -74 71 -48
12 -154 22 -161 15z"/>
<path d="M1160 1657 c-27 -9 -36 -18 -38 -40 -6 -47 7 -52 129 -52 110 0 114
1 126 24 15 32 3 56 -38 70 -41 14 -134 13 -179 -2z"/>
<path d="M435 1538 c-11 -6 -23 -16 -26 -21 -13 -19 -1 -320 15 -387 74 -313
311 -555 616 -631 70 -17 117 -26 148 -28 9 -1 12 -36 12 -140 0 -114 3 -143
16 -155 21 -22 61 -20 74 3 5 11 10 81 10 155 0 102 3 136 13 137 12 0 33 4
92 14 17 3 33 5 37 5 5 0 41 12 80 26 283 101 479 318 553 610 21 83 29 375
11 399 -16 22 -53 26 -71 9 -18 -18 -16 -3 -20 -184 -5 -250 -61 -394 -215
-550 -98 -100 -175 -149 -305 -192 -80 -27 -104 -31 -215 -32 -143 -1 -210 13
-330 70 -152 72 -270 187 -345 339 -61 123 -77 199 -80 377 -2 81 -6 152 -10
157 -13 21 -40 30 -60 19z"/>
</g>
</svg>
